<?xml version="1.0" encoding="UTF-8"?>
<svg id="_x32_" xmlns="http://www.w3.org/2000/svg" version="1.1" viewBox="0 0 512 512">
  <style>
    path {
      fill: black; <!-- ライトモードの色 -->
    }
    circle{
      fill: black; <!-- ライトモードの色 -->
    }
    @media (prefers-color-scheme: dark) {
      path {
        fill: white; <!-- ダークモードの色 -->
        opacity: 0.5; <!-- 他にも色々かける -->
      }
      circle {
        fill: white; <!-- ダークモードの色 -->
        opacity: 0.5; <!-- 他にも色々かける -->
      }
    }
  </style>
  <!-- Generator: Adobe Illustrator 29.1.0, SVG Export Plug-In . SVG Version: 2.1.0 Build 142)  -->
  <path d="M479,194.5c-21.3-21.7-49.7-34.1-79.9-34.9l-10.2-.3-2.2-10c-5.7-26.5-20.5-50.6-41.6-67.8-21.7-17.7-48-27.1-76.1-27.1s-54.9,9.6-76.8,27.7c-21.2,17.6-35.9,42.1-41.3,69l-2.5,12.4-12.6-2.2c-7.2-1.2-13.7-1.8-20-1.8-30.9,0-60,12.1-82,34C12.1,215.4,0,244.6,0,275.5s12.1,60,34,82c21.9,21.9,51,34,82,34h280.1c30.9,0,60-12.1,82-34,21.9-22,33.9-51.1,34-82,0-30.4-11.7-59.1-33-81h0ZM115.5,320.8c-23.5,0-42.5-19-42.5-42.5s19-42.5,42.5-42.5,42.5,19,42.5,42.5-19,42.5-42.5,42.5ZM298.5,320.8h-85v-85h85v85ZM351.5,320.8l42.5-85,42.5,85h-85Z"/>
  <circle cx="115.5" cy="430.2" r="33.3"/>
  <circle cx="40.7" cy="477.2" r="16" transform="translate(-437.7 502) rotate(-88.1)"/>
</svg>